<?xml version="1.0" encoding="utf-8"?>
<!-- Generator: Adobe Illustrator 25.2.0, SVG Export Plug-In . SVG Version: 6.00 Build 0)  -->
<svg version="1.1" id="Layer_1" xmlns="http://www.w3.org/2000/svg" xmlns:xlink="http://www.w3.org/1999/xlink" x="0px" y="0px"
	 viewBox="0 0 512 512" style="enable-background:new 0 0 512 512;" xml:space="preserve">
<style type="text/css">
	.st0{fill:#ED2328;}
</style>
<g transform="translate(0.000000,512.000000) scale(0.100000,-0.100000)">
	<path class="st0" d="M2380,5114c-19-2-78-9-130-14c-330-36-695-160-990-336c-375-224-680-529-904-904c-175-292-291-632-338-990
		c-16-123-16-497,0-620c82-623,356-1150,820-1581c256-239,575-425,922-539C2034,39,2251,6,2560,6c228,0,329,9,530,50
		c689,141,1304,583,1674,1204c175,292,291,632,338,990c16,123,16,497,0,620c-47,358-163,698-338,990c-224,375-529,680-904,904
		c-289,173-634,291-980,336C2792,5112,2442,5121,2380,5114z M2785,3990c247-64,468-245,580-475c70-142,88-224,88-395
		c0-118-4-160-22-225c-68-251-246-468-476-580c-91-45-223-85-278-85c-60,0-18-10,100-25c529-66,994-354,1287-799
		c78-118,180-329,171-355c-3-11-52-63-107-116c-340-323-748-528-1208-606c-113-19-172-23-360-23s-247,4-360,23
		c-460,78-868,283-1208,606c-55,53-104,105-107,116c-9,26,93,237,171,355c293,445,758,733,1287,799c118,15,160,25,100,25
		c-55,0-187,40-278,85c-230,112-408,329-476,580c-18,65-22,107-22,225c0,171,18,253,88,395c123,253,366,437,642,490
		C2502,4025,2679,4018,2785,3990z"/>
</g>
</svg>
