<svg xmlns="http://www.w3.org/2000/svg" width="11.977" height="13.643" viewBox="0 0 11.977 13.643">
  <g id="bin" transform="translate(-31.254 511.888)">
    <path id="Path_51" data-name="Path 51" d="M35.407-511.862a1.231,1.231,0,0,0-.829.642,1.458,1.458,0,0,0-.133.69v.237H33.408c-.592,0-1.1.011-1.178.027a1.2,1.2,0,0,0-.962,1,1.188,1.188,0,0,0,.615,1.22l.184.1.016.155c.011.083.173,2.033.362,4.335s.357,4.229.37,4.284a1.249,1.249,0,0,0,.893.885c.242.059,6.824.059,7.066,0a1.249,1.249,0,0,0,.893-.885c.013-.056.179-1.985.37-4.284s.352-4.253.362-4.335l.016-.155.184-.1a1.188,1.188,0,0,0,.615-1.22,1.2,1.2,0,0,0-.962-1c-.083-.016-.586-.027-1.178-.027H40.04v-.237a2.857,2.857,0,0,0-.027-.378,1.212,1.212,0,0,0-.957-.957C38.881-511.9,35.577-511.9,35.407-511.862Zm3.621.823c.16.083.213.208.213.506v.24h-4v-.24c0-.293.053-.424.208-.5.1-.051.16-.053,1.785-.056S38.927-511.089,39.028-511.038Zm3.2,1.6a.421.421,0,0,1,.213.346.421.421,0,0,1-.213.346c-.1.053-.147.053-4.983.053s-4.879,0-4.983-.053a.421.421,0,0,1-.213-.346.427.427,0,0,1,.208-.344c.1-.053.173-.053,4.983-.056C42.081-509.493,42.121-509.493,42.225-509.44Zm-.629,1.657c-.005.064-.168,1.99-.357,4.279-.373,4.514-.344,4.258-.514,4.386l-.075.056H33.835l-.075-.056c-.171-.128-.141.128-.514-4.386-.189-2.289-.352-4.215-.357-4.279l-.016-.112h8.74Z" transform="translate(0)" fill="#ed2328"/>
    <path id="Path_52" data-name="Path 52" d="M151.011-331.81a.346.346,0,0,0-.155.165l-.056.115.2,3.288c.226,3.68.2,3.461.413,3.57a.383.383,0,0,0,.378,0,.35.35,0,0,0,.16-.168l.056-.115-.2-3.288c-.226-3.68-.2-3.461-.413-3.57A.387.387,0,0,0,151.011-331.81Z" transform="translate(-116.36 -175.228)" fill="#ed2328"/>
    <path id="Path_53" data-name="Path 53" d="M241.208-331.725a.382.382,0,0,0-.155.157,19.689,19.689,0,0,0-.053,3.411,19.65,19.65,0,0,0,.053,3.411.421.421,0,0,0,.346.213.421.421,0,0,0,.346-.213,19.65,19.65,0,0,0,.053-3.411,19.65,19.65,0,0,0-.053-3.411A.39.39,0,0,0,241.208-331.725Z" transform="translate(-204.157 -175.314)" fill="#ed2328"/>
    <path id="Path_54" data-name="Path 54" d="M316.41-331.739c-.205.109-.181-.1-.408,3.568l-.2,3.288.056.115a.35.35,0,0,0,.16.168.383.383,0,0,0,.378,0c.21-.109.187.109.413-3.57l.2-3.288-.056-.115A.39.39,0,0,0,316.41-331.739Z" transform="translate(-276.964 -175.3)" fill="#ed2328"/>
  </g>
</svg>
