<?xml version="1.0" encoding="utf-8"?>
<!-- Generator: Adobe Illustrator 25.2.0, SVG Export Plug-In . SVG Version: 6.00 Build 0)  -->
<svg version="1.1" id="Layer_1" xmlns="http://www.w3.org/2000/svg" xmlns:xlink="http://www.w3.org/1999/xlink" x="0px" y="0px"
	 viewBox="0 0 512 512" style="enable-background:new 0 0 512 512;" xml:space="preserve">
<style type="text/css">
	.st0{fill:#ED2328;}
</style>
<g transform="translate(0.000000,512.000000) scale(0.100000,-0.100000)">
	<path class="st0" d="M78,4789c-43-22-78-81-78-129c0-50,35-107,80-130c37-19,58-20,367-20h329l361-1266l362-1266l-29-58
		c-50-99-72-177-72-260c0-208,135-382,337-435c43-11,115-15,265-16c185-1,200-2,155-13c-84-21-147-57-211-121
		c-177-176-177-453,1-630c258-259,695-118,757,244c24,141-22,281-127,387c-63,63-143,109-218,124c-24,4,262,8,658,8
		c580,0,691-2,650-12c-84-21-147-57-211-121c-177-176-177-454,0-630c260-259,696-118,758,244c39,227-111,452-337,507
		c-43,11-11,12,238,13c268,1,291,2,327,21c45,23,80,80,80,130s-35,107-80,130c-39,20-56,20-1332,20c-1211,0-1295,1-1328,18
		c-81,40-101,128-53,227l27,55h1323c1312,0,1324,0,1364,20c28,15,46,33,59,63c27,56,620,2139,620,2174c0,41-40,103-80,124
		c-33,18-104,19-1951,19H1173l-67,238c-83,289-93,314-150,341c-41,20-58,21-442,21C137,4809,113,4808,78,4789z M4766,3893
		c-3-10-118-415-257-900l-252-883H3015H1773l-252,883c-139,485-254,890-257,900c-5,16,83,17,1751,17S4771,3909,4766,3893z M2330,890
		c45-23,80-80,80-131c0-74-76-149-151-149c-46,0-108,39-130,82c-37,72-14,151,57,194C2234,915,2278,916,2330,890z M3840,890
		c45-23,80-80,80-131c0-74-76-149-151-149c-46,0-108,39-130,82c-37,72-14,151,57,194C3744,915,3788,916,3840,890z"/>
</g>
</svg>
