<?xml version="1.0" encoding="utf-8"?>
<!-- Generator: Adobe Illustrator 25.2.0, SVG Export Plug-In . SVG Version: 6.00 Build 0)  -->
<svg version="1.1" id="Layer_1" xmlns="http://www.w3.org/2000/svg" xmlns:xlink="http://www.w3.org/1999/xlink" x="0px" y="0px"
	 viewBox="0 0 512 512" style="enable-background:new 0 0 512 512;" xml:space="preserve">
<style type="text/css">
	.st0{fill:#ED2328;}
</style>
<g transform="translate(0.000000,512.000000) scale(0.100000,-0.100000)">
	<path class="st0" d="M1940,5109c-357-37-713-177-1020-403c-114-83-323-290-407-402c-264-349-405-745-420-1179
		c-9-259,23-481,103-723c100-301,272-578,500-806c334-334,756-539,1227-597c127-15,451-7,572,15c281,51,531,147,758,289l87,56
		l614-638c337-350,627-649,644-663c108-90,294-65,376,50c42,58,54,96,55,164c2,108-5,117-654,790c-324,336-600,624-612,639l-23,27
		l54,68c362,465,503,1076,385,1674c-59,299-214,627-412,873C3325,4893,2638,5180,1940,5109z M2350,4566c649-87,1163-562,1300-1202
		c28-127,38-382,20-503c-49-348-196-645-436-885c-231-232-518-378-844-432c-109-18-349-18-466,0c-422,64-804,309-1039,666
		c-84,127-129,220-175,359c-51,151-71,264-77,434c-33,853,655,1569,1512,1576C2200,4579,2292,4573,2350,4566z"/>
</g>
</svg>
