<svg xmlns="http://www.w3.org/2000/svg" width="78.846" height="17.186" viewBox="0 0 78.846 17.186">
  <g id="Group_7" data-name="Group 7" transform="translate(-923.644 -556)">
    <text id="omeCart" transform="translate(939 569)" fill="#ed2328" font-size="14" font-family="Calibri"><tspan x="0" y="0">omeCart</tspan></text>
    <path id="Path_43" data-name="Path 43" d="M.556-507.022a.718.718,0,0,0-.381.287A.855.855,0,0,0,.242-505.7c.219.229.189.223,1.508.243s1.326.02,1.5.243c.138.186,1.12,3.509,1.977,6.7.425,1.579.82,2.983.874,3.114a4.021,4.021,0,0,0,1.272,1.545,4.731,4.731,0,0,0,.951.476c.547.186.5.182,2.993.2,1.609.01,2.433,0,2.662-.024a3.664,3.664,0,0,0,2.217-1.076,3.679,3.679,0,0,0,1.059-2.041,39.265,39.265,0,0,0,0-4.18,3.713,3.713,0,0,0-3.053-3.131c-.2-.037-.763-.047-2.6-.047H9.258l-.186.1a.731.731,0,0,0-.287.267.626.626,0,0,0-.1.439.67.67,0,0,0,.094.435.753.753,0,0,0,.526.361c.111.02,1.046.034,2.423.034,2.5,0,2.446,0,2.895.229a2.506,2.506,0,0,1,.9.9c.233.452.233.442.223,2.524-.01,1.862-.01,1.862-.091,2.078a2.608,2.608,0,0,1-.6.877,2.349,2.349,0,0,1-.948.493,21.692,21.692,0,0,1-2.537.051c-2.574,0-2.574,0-3.033-.226a2.213,2.213,0,0,1-.924-.921c-.121-.26-1.346-4.46-2.284-7.844-.56-2.011-.6-2.1-1.029-2.534a2.052,2.052,0,0,0-1.107-.6A16.317,16.317,0,0,0,.556-507.022Z" transform="translate(985.18 1063.324)" fill="#ed2328"/>
    <path id="Path_44" data-name="Path 44" d="M209.3-52.7a.756.756,0,0,0-.6.779.784.784,0,0,0,.256.631c.186.162.31.186.938.172.543-.01.563-.013.7-.1a.691.691,0,0,0,.337-.594.779.779,0,0,0-.412-.823c-.121-.061-.2-.071-.628-.081A4.475,4.475,0,0,0,209.3-52.7Z" transform="translate(783.554 624.299)" fill="#ed2328"/>
    <path id="Path_41" data-name="Path 41" d="M424.3-52.84a.777.777,0,0,0-.6.8.766.766,0,0,0,.256.607c.2.172.307.192.938.179.543-.01.563-.013.7-.1a.706.706,0,0,0,.341-.638.7.7,0,0,0-.078-.445.7.7,0,0,0-.493-.388A4.873,4.873,0,0,0,424.3-52.84Z" transform="translate(575.806 624.441)" fill="#ed2328"/>
    <g id="Group_1" data-name="Group 1" transform="translate(57.855 -57.607)">
      <path id="Path_37" data-name="Path 37" d="M3.584,0,0,12.331" transform="matrix(0.999, -0.035, 0.035, 0.999, 869.325, 617.008)" fill="#ed2328" stroke="#ed2328" stroke-linecap="round" stroke-width="2"/>
      <path id="Path_40" data-name="Path 40" d="M3.584,0,0,12.331" transform="matrix(0.259, 0.966, -0.966, 0.259, 879.218, 619.78)" fill="#ed2328" stroke="#ed2328" stroke-linecap="round" stroke-width="2"/>
      <path id="Path_39" data-name="Path 39" d="M3.584,0,0,12.331" transform="matrix(0.999, -0.035, 0.035, 0.999, 874.115, 617.008)" fill="#ed2328" stroke="#ed2328" stroke-linecap="round" stroke-width="2"/>
    </g>
    <g id="Group_2" data-name="Group 2" transform="translate(127.177 -54.118)">
      <path id="Path_37-2" data-name="Path 37" d="M1.124,0,0,3.868" transform="matrix(0.999, -0.035, 0.035, 0.999, 867.94, 616.922)" fill="#ed2328" stroke="#ed2328" stroke-linecap="round" stroke-width="0.5"/>
      <path id="Path_40-2" data-name="Path 40" d="M1.124,0,0,3.868" transform="matrix(0.259, 0.966, -0.966, 0.259, 871.043, 617.792)" fill="#ed2328" stroke="#ed2328" stroke-linecap="round" stroke-width="0.5"/>
      <path id="Path_39-2" data-name="Path 39" d="M1.124,0,0,3.868" transform="matrix(0.999, -0.035, 0.035, 0.999, 869.443, 616.922)" fill="#ed2328" stroke="#ed2328" stroke-linecap="round" stroke-width="0.5"/>
    </g>
  </g>
</svg>
